<svg width="72" height="72" viewBox="0 0 72 72" fill="none" xmlns="http://www.w3.org/2000/svg">
<path fill-rule="evenodd" clip-rule="evenodd" d="M36 60C49.2548 60 60 49.2548 60 36C60 22.7452 49.2548 12 36 12C22.7452 12 12 22.7452 12 36C12 49.2548 22.7452 60 36 60ZM36 72C55.8822 72 72 55.8822 72 36C72 16.1177 55.8822 0 36 0C16.1177 0 0 16.1177 0 36C0 55.8822 16.1177 72 36 72Z" fill="url(#paint0_linear_1230_2794)"/>
<path d="M39.1 35.6C39.1 33.668 37.532 32.1 35.6 32.1C33.668 32.1 32.1 33.668 32.1 35.6C32.1 37 32.926 38.176 34.102 38.75L32.548 40.29C31.022 39.296 30 37.574 30 35.6C30 32.506 32.506 30 35.6 30C38.694 30 41.2 32.506 41.2 35.6C41.2 37.574 40.178 39.296 38.652 40.29L37.112 38.75C38.288 38.176 39.1 37 39.1 35.6ZM35.6 21.6C27.9 21.6 21.6 27.9 21.6 35.6C21.6 39.884 23.532 43.72 26.556 46.282L28.054 44.798C25.394 42.6 23.7 39.296 23.7 35.6C23.7 29.034 29.034 23.7 35.6 23.7C42.166 23.7 47.5 29.034 47.5 35.6C47.5 39.296 45.806 42.6 43.146 44.798L44.644 46.282C47.668 43.706 49.6 39.884 49.6 35.6C49.6 27.9 43.3 21.6 35.6 21.6ZM45.4 35.6C45.4 30.182 41.018 25.8 35.6 25.8C30.182 25.8 25.8 30.182 25.8 35.6C25.8 38.722 27.27 41.508 29.552 43.3L31.05 41.802C29.146 40.388 27.9 38.148 27.9 35.6C27.9 31.358 31.358 27.9 35.6 27.9C39.842 27.9 43.3 31.358 43.3 35.6C43.3 38.148 42.054 40.388 40.15 41.802L41.662 43.3C43.93 41.508 45.4 38.722 45.4 35.6ZM27.2 49.6H44L35.6 41.2L27.2 49.6Z" fill="black"/>
<defs>
<linearGradient id="paint0_linear_1230_2794" x1="36" y1="0" x2="36" y2="72" gradientUnits="userSpaceOnUse">
<stop stop-color="#4838D1"/>
<stop offset="1" stop-color="#D4553E"/>
</linearGradient>
</defs>
</svg>
