<svg width="16" height="12" viewBox="0 0 16 12" fill="none" xmlns="http://www.w3.org/2000/svg">
<g clip-path="url(#clip0_52_3915)">
<path d="M0.97257 1.94493H15.0264C15.5627 1.94493 15.9988 1.50884 15.9988 0.97258C15.9988 0.43632 15.5627 0 15.0264 0H0.97258C0.43632 0 0 0.43632 0 0.97258C0 1.50884 0.43632 1.94493 0.97258 1.94493H0.97257Z" fill="#686A8A"/>
<path d="M15.0264 5.01904H0.97258C0.43632 5.01904 0 5.45536 0 5.99162C0 6.52789 0.43632 6.96397 0.97258 6.96397H15.0264C15.5627 6.96397 15.9988 6.52788 15.9988 5.99162C15.9988 5.45536 15.5627 5.01904 15.0264 5.01904H15.0264Z" fill="#686A8A"/>
<path d="M15.0264 10.038H0.97258C0.43632 10.038 0 10.4745 0 11.0108C0 11.547 0.43632 11.9831 0.97258 11.9831H15.0264C15.5627 11.9831 15.9988 11.547 15.9988 11.0108C15.9988 10.4745 15.5627 10.038 15.0264 10.038Z" fill="#686A8A"/>
</g>
<defs>
<clipPath id="clip0_52_3915">
<rect width="15.9988" height="11.9832" fill="white"/>
</clipPath>
</defs>
</svg>
