<svg width="21" height="15" viewBox="0 0 21 15" fill="none" xmlns="http://www.w3.org/2000/svg">
<g clip-path="url(#clip0_14_4688)">
<g clip-path="url(#clip1_14_4688)">
<g clip-path="url(#clip2_14_4688)">
<circle cx="4.02635" cy="2.08507" r="2.07713" fill="#686A8A"/>
<path d="M6.71048 6.07185C4.82699 7.24717 3.68234 9.31033 3.68202 11.5304H1.84101C0.82551 11.5274 0.00304 10.7049 0 9.68943V7.84842C0.00455 6.32517 1.23826 5.09146 2.76151 5.08691H4.60252C5.41594 5.08874 6.18718 5.4491 6.71048 6.07185Z" fill="#686A8A"/>
<circle cx="16.6352" cy="2.08507" r="2.07713" fill="#686A8A"/>
<path d="M20.6829 7.84842V9.68943C20.6798 10.7049 19.8573 11.5274 18.8418 11.5304H17.0008C17.0008 9.31124 15.8565 7.24792 13.9731 6.07233C14.4962 5.44961 15.2671 5.08909 16.0803 5.08691H17.9213C19.4446 5.09146 20.6783 6.32517 20.6828 7.84842H20.6829Z" fill="#686A8A"/>
<circle cx="10.3309" cy="2.62586" r="2.58533" fill="#686A8A"/>
<path d="M15.8948 11.0625V11.983C15.8902 13.5063 14.6426 14.74 13.1021 14.7445H7.51679C5.97635 14.74 4.72873 13.5062 4.72412 11.983V11.0625C4.72412 8.52058 6.80799 6.45996 9.37856 6.45996H11.2403C13.8109 6.45996 15.8948 8.52058 15.8948 11.0625H15.8948Z" fill="#686A8A"/>
</g>
</g>
</g>
<defs>
<clipPath id="clip0_14_4688">
<rect width="20.6827" height="14.7365" fill="white" transform="translate(0 0.00793457)"/>
</clipPath>
<clipPath id="clip1_14_4688">
<rect width="20.6827" height="14.7365" fill="white" transform="translate(0 0.00793457)"/>
</clipPath>
<clipPath id="clip2_14_4688">
<rect width="20.6827" height="14.7365" fill="white" transform="translate(0 0.00793457)"/>
</clipPath>
</defs>
</svg>
